<svg enable-background="new 0 0 468.293 468.293" viewBox="0 0 468.293 468.293" xmlns="http://www.w3.org/2000/svg"><path d="m21.242 0h298.028v443.941h-298.028z" fill="#64798a"/><g fill="#44c4a1"><path d="m54.703 34.341h38.256v63.282h-38.256z"/><path d="m118.984 34.341h38.256v63.282h-38.256z"/><path d="m183.271 34.341h38.256v63.282h-38.256z"/><path d="m247.571 34.341h38.256v63.282h-38.256z"/><path d="m54.703 134.306h38.256v63.282h-38.256z"/><path d="m118.984 134.306h38.256v63.282h-38.256z"/></g><path d="m183.271 134.306h38.256v63.282h-38.256z" fill="#27a2db"/><path d="m247.571 134.306h38.256v63.282h-38.256z" fill="#27a2db"/><path d="m221.525 297.515h-38.256l38.256-63.284z" fill="#2d93ba"/><path d="m285.808 297.515h-38.255l38.255-63.284z" fill="#2d93ba"/><path d="m54.703 334.174h38.256v63.282h-38.256z" fill="#44c4a1"/><path d="m118.984 334.174h38.256v63.282h-38.256z" fill="#44c4a1"/><path d="m183.271 334.174h38.256v63.282h-38.256z" fill="#27a2db"/><path d="m247.571 334.174h38.256v63.282h-38.256z" fill="#27a2db"/><path d="m92.958 97.628h-38.255l38.255-63.284z" fill="#3ea69b"/><path d="m157.242 97.628h-38.256l38.256-63.284z" fill="#3ea69b"/><path d="m221.525 97.628h-38.256l38.256-63.284z" fill="#3ea69b"/><path d="m285.808 97.628h-38.255l38.255-63.284z" fill="#3ea69b"/><path d="m92.958 197.571h-38.255l38.255-63.283z" fill="#3ea69b"/><path d="m157.242 197.571h-38.256l38.256-63.283z" fill="#3ea69b"/><path d="m221.525 197.571h-38.256l38.256-63.283z" fill="#2d93ba"/><path d="m285.808 197.571h-38.255l38.255-63.283z" fill="#2d93ba"/><path d="m54.703 234.209h38.256v63.282h-38.256z" fill="#44c4a1"/><path d="m118.984 234.209h38.256v63.282h-38.256z" fill="#44c4a1"/><path d="m183.271 234.209h38.256v63.282h-38.256z" fill="#27a2db"/><path d="m247.571 234.209h38.256v63.282h-38.256z" fill="#27a2db"/><path d="m92.958 397.458h-38.255l38.255-63.283z" fill="#3ea69b"/><path d="m157.242 397.458h-38.256l38.256-63.283z" fill="#3ea69b"/><path d="m221.525 397.458h-38.256l38.256-63.283z" fill="#2d93ba"/><path d="m285.808 397.458h-38.255l38.255-63.283z" fill="#2d93ba"/><path d="m183.271 133.638h255.563v310.328h-255.563z" fill="#d5d6db"/><path d="m268.488 358.793h85.186v85.173h-85.186z" fill="#64798a"/><path d="m257.792 344.457h106.521v14.342h-106.521z" fill="#3a556a"/><path d="m204.55 162.597h35.253v61.49h-35.253z" fill="#27a2db"/><path d="m263.805 162.597h35.253v61.49h-35.253z" fill="#27a2db"/><path d="m323.06 162.597h35.253v61.49h-35.253z" fill="#27a2db"/><path d="m382.283 162.597h35.253v61.49h-35.253z" fill="#27a2db"/><path d="m239.82 224.088h-35.254l35.254-61.491z" fill="#2d93ba"/><path d="m299.059 224.088h-35.254l35.254-61.491z" fill="#2d93ba"/><path d="m358.297 224.088h-35.253l35.253-61.491z" fill="#2d93ba"/><path d="m417.536 224.088h-35.253l35.253-61.491z" fill="#2d93ba"/><path d="m204.55 254.002h35.253v61.49h-35.253z" fill="#27a2db"/><path d="m263.805 254.002h35.253v61.49h-35.253z" fill="#27a2db"/><path d="m323.06 254.002h35.253v61.49h-35.253z" fill="#27a2db"/><path d="m382.283 254.002h35.253v61.49h-35.253z" fill="#27a2db"/><path d="m382.283 344.457h35.253v61.49h-35.253z" fill="#27a2db"/><path d="m204.55 344.457h35.253v61.49h-35.253z" fill="#27a2db"/><path d="m239.82 315.497h-35.254l35.254-61.491z" fill="#2d93ba"/><path d="m299.059 315.497h-35.254l35.254-61.491z" fill="#2d93ba"/><path d="m358.297 315.497h-35.253l35.253-61.491z" fill="#2d93ba"/><path d="m417.536 315.497h-35.253l35.253-61.491z" fill="#2d93ba"/><path d="m417.536 405.946h-35.253l35.253-61.49z" fill="#2d93ba"/><path d="m239.82 405.946h-35.254l35.254-61.49z" fill="#2d93ba"/><path d="m455.967 468.293h-443.641c-3.448 0-6.244-2.796-6.244-6.244v-11.839c0-3.448 2.795-6.244 6.244-6.244h443.641c3.448 0 6.244 2.795 6.244 6.244v11.839c0 3.448-2.796 6.244-6.244 6.244z" fill="#3a556a"/><path d="m92.958 297.515h-38.255l38.255-63.284z" fill="#3ea69b"/><path d="m157.242 297.515h-38.256l38.256-63.284z" fill="#3ea69b"/></svg>